<svg width="125" height="125" viewBox="0 0 125 125" fill="none" xmlns="http://www.w3.org/2000/svg">
    <circle cx="62.5" cy="62.5" r="62.5" fill="#9AFCC5" />
    <mask id="path-2-inside-1_449_29294" fill="white">
        <path fill-rule="evenodd" clip-rule="evenodd"
            d="M86.6898 27C83.0506 27 80.0618 29.9919 80.0618 33.6349C80.0618 37.278 83.0505 40.2698 86.6898 40.2698C90.329 40.2698 93.3177 37.278 93.3177 33.6349C93.3177 29.9919 90.329 27 86.6898 27ZM86.6898 30.6003C88.3853 30.6003 89.7212 31.9377 89.7212 33.6349C89.7212 35.3322 88.3853 36.6695 86.6898 36.6695C84.9943 36.6695 83.6584 35.3322 83.6584 33.6349C83.6584 31.9377 84.9943 30.6003 86.6898 30.6003ZM80.8538 42.2305C80.6218 42.2409 80.394 42.2962 80.1829 42.3933L64.2882 49.7126C64.0356 49.8289 63.8134 50.0023 63.639 50.2191C63.4647 50.4359 63.3429 50.6902 63.2833 50.9621L60.4222 64.0094C60.3679 64.2416 60.3603 64.4823 60.3997 64.7176C60.4391 64.9528 60.5249 65.1778 60.6519 65.3796C60.779 65.5814 60.9448 65.7559 61.1398 65.8929C61.3348 66.03 61.555 66.1269 61.7877 66.1781C62.0205 66.2292 62.261 66.2335 62.4954 66.1908C62.7298 66.1481 62.9534 66.0592 63.1532 65.9292C63.353 65.7993 63.525 65.6309 63.6593 65.4338C63.7935 65.2368 63.8873 65.015 63.9351 64.7813L66.6043 52.609L78.0997 47.3156L71.5791 69.6178C71.4886 69.9275 71.4828 70.2558 71.5625 70.5685C71.6422 70.8811 71.8044 71.1666 72.032 71.395L82.5279 81.9241L80.7274 96.5969C80.695 96.8333 80.7098 97.0737 80.7711 97.3042C80.8323 97.5348 80.9387 97.7508 81.0841 97.9399C81.2295 98.1289 81.4109 98.2871 81.6179 98.4053C81.8249 98.5236 82.0533 98.5994 82.2899 98.6285C82.5264 98.6576 82.7663 98.6393 82.9958 98.5748C83.2252 98.5102 83.4395 98.4007 83.6263 98.2525C83.813 98.1043 83.9685 97.9205 84.0837 97.7116C84.1988 97.5027 84.2714 97.2731 84.2971 97.0359L86.2044 81.4928C86.2377 81.2216 86.2089 80.9465 86.1202 80.6882C86.0315 80.4298 85.8853 80.1951 85.6925 80.0017L75.3299 69.6063L82.6603 44.5344C82.7406 44.2596 82.7543 43.9695 82.7001 43.6882C82.6459 43.407 82.5255 43.1428 82.3489 42.9175C82.1722 42.6922 81.9444 42.5123 81.6844 42.3929C81.4244 42.2734 81.1396 42.2177 80.8538 42.2305ZM84.032 51.5778C83.6742 51.5768 83.3243 51.6827 83.0269 51.8818C82.7295 52.081 82.4982 52.3644 82.3626 52.6959C82.227 53.0274 82.1933 53.3918 82.2657 53.7426C82.3381 54.0933 82.5134 54.4145 82.7691 54.665L90.3486 62.3024C90.5813 62.5369 90.874 62.7027 91.1946 62.7817C91.5152 62.8607 91.8513 62.8498 92.1661 62.7503L98.6425 60.702C98.8707 60.6333 99.083 60.5199 99.267 60.3684C99.4511 60.2169 99.6032 60.0303 99.7146 59.8194C99.8259 59.6085 99.8944 59.3776 99.9158 59.14C99.9373 58.9025 99.9114 58.663 99.8396 58.4355C99.7678 58.2081 99.6516 57.9972 99.4976 57.8151C99.3437 57.633 99.1552 57.4833 98.943 57.3748C98.7308 57.2662 98.4992 57.201 98.2616 57.1828C98.024 57.1646 97.7852 57.1939 97.559 57.2689L92.1277 58.9867L85.3206 52.1275C85.1535 51.9543 84.9533 51.8164 84.732 51.7219C84.5106 51.6275 84.2726 51.5785 84.032 51.5778ZM70.8362 76.9086C70.483 76.9088 70.1377 77.0132 69.8434 77.2086C69.5491 77.404 69.3187 77.6819 69.1811 78.0075L61.2338 96.0964C61.1348 96.3134 61.0798 96.548 61.0721 96.7864C61.0644 97.0249 61.1042 97.2625 61.189 97.4854C61.2738 97.7084 61.4021 97.9122 61.5663 98.0851C61.7305 98.258 61.9274 98.3965 62.1456 98.4925C62.3638 98.5886 62.5988 98.6402 62.8371 98.6446C63.0754 98.6489 63.3121 98.6057 63.5336 98.5177C63.7551 98.4296 63.9569 98.2983 64.1272 98.1315C64.2976 97.9647 64.4332 97.7656 64.526 97.5459L72.4734 79.457C72.5985 79.1826 72.6529 78.8811 72.6313 78.5803C72.6098 78.2794 72.5131 77.9888 72.3501 77.7351C72.1872 77.4814 71.9631 77.2728 71.6986 77.1284C71.4341 76.984 71.1375 76.9084 70.8362 76.9086ZM26.8239 95.0443C26.5856 95.0409 26.349 95.085 26.1279 95.1739C25.9067 95.2629 25.7055 95.395 25.5358 95.5625C25.3661 95.7299 25.2313 95.9295 25.1393 96.1496C25.0474 96.3697 25 96.6059 25 96.8445C25 97.083 25.0474 97.3192 25.1393 97.5393C25.2313 97.7594 25.3661 97.959 25.5358 98.1265C25.7055 98.294 25.9067 98.426 26.1279 98.515C26.349 98.6039 26.5856 98.648 26.8239 98.6446H31.4738C31.7121 98.648 31.9487 98.6039 32.1698 98.515C32.391 98.426 32.5922 98.294 32.7619 98.1265C32.9316 97.959 33.0664 97.7594 33.1584 97.5393C33.2504 97.3192 33.2977 97.083 33.2977 96.8445C33.2977 96.6059 33.2504 96.3697 33.1584 96.1496C33.0664 95.9295 32.9316 95.7299 32.7619 95.5625C32.5922 95.395 32.391 95.2629 32.1698 95.1739C31.9487 95.085 31.7121 95.0409 31.4738 95.0443H26.8239ZM36.878 95.0443C36.6397 95.0409 36.4031 95.085 36.182 95.1739C35.9609 95.2629 35.7596 95.395 35.5899 95.5625C35.4202 95.7299 35.2854 95.9295 35.1935 96.1496C35.1015 96.3697 35.0541 96.6059 35.0541 96.8445C35.0541 97.083 35.1015 97.3192 35.1935 97.5393C35.2854 97.7594 35.4202 97.959 35.5899 98.1265C35.7596 98.294 35.9609 98.426 36.182 98.515C36.4031 98.6039 36.6397 98.648 36.878 98.6446H56.0202C56.2585 98.648 56.495 98.6039 56.7162 98.515C56.9373 98.426 57.1386 98.294 57.3083 98.1265C57.478 97.959 57.6127 97.7594 57.7047 97.5393C57.7967 97.3192 57.8441 97.083 57.8441 96.8445C57.8441 96.6059 57.7967 96.3697 57.7047 96.1496C57.6127 95.9295 57.478 95.7299 57.3083 95.5625C57.1386 95.395 56.9373 95.2629 56.7162 95.1739C56.495 95.085 56.2585 95.0409 56.0202 95.0443H36.878Z" />
    </mask>
    <path fill-rule="evenodd" clip-rule="evenodd"
        d="M86.6898 27C83.0506 27 80.0618 29.9919 80.0618 33.6349C80.0618 37.278 83.0505 40.2698 86.6898 40.2698C90.329 40.2698 93.3177 37.278 93.3177 33.6349C93.3177 29.9919 90.329 27 86.6898 27ZM86.6898 30.6003C88.3853 30.6003 89.7212 31.9377 89.7212 33.6349C89.7212 35.3322 88.3853 36.6695 86.6898 36.6695C84.9943 36.6695 83.6584 35.3322 83.6584 33.6349C83.6584 31.9377 84.9943 30.6003 86.6898 30.6003ZM80.8538 42.2305C80.6218 42.2409 80.394 42.2962 80.1829 42.3933L64.2882 49.7126C64.0356 49.8289 63.8134 50.0023 63.639 50.2191C63.4647 50.4359 63.3429 50.6902 63.2833 50.9621L60.4222 64.0094C60.3679 64.2416 60.3603 64.4823 60.3997 64.7176C60.4391 64.9528 60.5249 65.1778 60.6519 65.3796C60.779 65.5814 60.9448 65.7559 61.1398 65.8929C61.3348 66.03 61.555 66.1269 61.7877 66.1781C62.0205 66.2292 62.261 66.2335 62.4954 66.1908C62.7298 66.1481 62.9534 66.0592 63.1532 65.9292C63.353 65.7993 63.525 65.6309 63.6593 65.4338C63.7935 65.2368 63.8873 65.015 63.9351 64.7813L66.6043 52.609L78.0997 47.3156L71.5791 69.6178C71.4886 69.9275 71.4828 70.2558 71.5625 70.5685C71.6422 70.8811 71.8044 71.1666 72.032 71.395L82.5279 81.9241L80.7274 96.5969C80.695 96.8333 80.7098 97.0737 80.7711 97.3042C80.8323 97.5348 80.9387 97.7508 81.0841 97.9399C81.2295 98.1289 81.4109 98.2871 81.6179 98.4053C81.8249 98.5236 82.0533 98.5994 82.2899 98.6285C82.5264 98.6576 82.7663 98.6393 82.9958 98.5748C83.2252 98.5102 83.4395 98.4007 83.6263 98.2525C83.813 98.1043 83.9685 97.9205 84.0837 97.7116C84.1988 97.5027 84.2714 97.2731 84.2971 97.0359L86.2044 81.4928C86.2377 81.2216 86.2089 80.9465 86.1202 80.6882C86.0315 80.4298 85.8853 80.1951 85.6925 80.0017L75.3299 69.6063L82.6603 44.5344C82.7406 44.2596 82.7543 43.9695 82.7001 43.6882C82.6459 43.407 82.5255 43.1428 82.3489 42.9175C82.1722 42.6922 81.9444 42.5123 81.6844 42.3929C81.4244 42.2734 81.1396 42.2177 80.8538 42.2305ZM84.032 51.5778C83.6742 51.5768 83.3243 51.6827 83.0269 51.8818C82.7295 52.081 82.4982 52.3644 82.3626 52.6959C82.227 53.0274 82.1933 53.3918 82.2657 53.7426C82.3381 54.0933 82.5134 54.4145 82.7691 54.665L90.3486 62.3024C90.5813 62.5369 90.874 62.7027 91.1946 62.7817C91.5152 62.8607 91.8513 62.8498 92.1661 62.7503L98.6425 60.702C98.8707 60.6333 99.083 60.5199 99.267 60.3684C99.4511 60.2169 99.6032 60.0303 99.7146 59.8194C99.8259 59.6085 99.8944 59.3776 99.9158 59.14C99.9373 58.9025 99.9114 58.663 99.8396 58.4355C99.7678 58.2081 99.6516 57.9972 99.4976 57.8151C99.3437 57.633 99.1552 57.4833 98.943 57.3748C98.7308 57.2662 98.4992 57.201 98.2616 57.1828C98.024 57.1646 97.7852 57.1939 97.559 57.2689L92.1277 58.9867L85.3206 52.1275C85.1535 51.9543 84.9533 51.8164 84.732 51.7219C84.5106 51.6275 84.2726 51.5785 84.032 51.5778ZM70.8362 76.9086C70.483 76.9088 70.1377 77.0132 69.8434 77.2086C69.5491 77.404 69.3187 77.6819 69.1811 78.0075L61.2338 96.0964C61.1348 96.3134 61.0798 96.548 61.0721 96.7864C61.0644 97.0249 61.1042 97.2625 61.189 97.4854C61.2738 97.7084 61.4021 97.9122 61.5663 98.0851C61.7305 98.258 61.9274 98.3965 62.1456 98.4925C62.3638 98.5886 62.5988 98.6402 62.8371 98.6446C63.0754 98.6489 63.3121 98.6057 63.5336 98.5177C63.7551 98.4296 63.9569 98.2983 64.1272 98.1315C64.2976 97.9647 64.4332 97.7656 64.526 97.5459L72.4734 79.457C72.5985 79.1826 72.6529 78.8811 72.6313 78.5803C72.6098 78.2794 72.5131 77.9888 72.3501 77.7351C72.1872 77.4814 71.9631 77.2728 71.6986 77.1284C71.4341 76.984 71.1375 76.9084 70.8362 76.9086ZM26.8239 95.0443C26.5856 95.0409 26.349 95.085 26.1279 95.1739C25.9067 95.2629 25.7055 95.395 25.5358 95.5625C25.3661 95.7299 25.2313 95.9295 25.1393 96.1496C25.0474 96.3697 25 96.6059 25 96.8445C25 97.083 25.0474 97.3192 25.1393 97.5393C25.2313 97.7594 25.3661 97.959 25.5358 98.1265C25.7055 98.294 25.9067 98.426 26.1279 98.515C26.349 98.6039 26.5856 98.648 26.8239 98.6446H31.4738C31.7121 98.648 31.9487 98.6039 32.1698 98.515C32.391 98.426 32.5922 98.294 32.7619 98.1265C32.9316 97.959 33.0664 97.7594 33.1584 97.5393C33.2504 97.3192 33.2977 97.083 33.2977 96.8445C33.2977 96.6059 33.2504 96.3697 33.1584 96.1496C33.0664 95.9295 32.9316 95.7299 32.7619 95.5625C32.5922 95.395 32.391 95.2629 32.1698 95.1739C31.9487 95.085 31.7121 95.0409 31.4738 95.0443H26.8239ZM36.878 95.0443C36.6397 95.0409 36.4031 95.085 36.182 95.1739C35.9609 95.2629 35.7596 95.395 35.5899 95.5625C35.4202 95.7299 35.2854 95.9295 35.1935 96.1496C35.1015 96.3697 35.0541 96.6059 35.0541 96.8445C35.0541 97.083 35.1015 97.3192 35.1935 97.5393C35.2854 97.7594 35.4202 97.959 35.5899 98.1265C35.7596 98.294 35.9609 98.426 36.182 98.515C36.4031 98.6039 36.6397 98.648 36.878 98.6446H56.0202C56.2585 98.648 56.495 98.6039 56.7162 98.515C56.9373 98.426 57.1386 98.294 57.3083 98.1265C57.478 97.959 57.6127 97.7594 57.7047 97.5393C57.7967 97.3192 57.8441 97.083 57.8441 96.8445C57.8441 96.6059 57.7967 96.3697 57.7047 96.1496C57.6127 95.9295 57.478 95.7299 57.3083 95.5625C57.1386 95.395 56.9373 95.2629 56.7162 95.1739C56.495 95.085 56.2585 95.0409 56.0202 95.0443H36.878Z"
        fill="#7135C7" stroke="#7135C7" stroke-width="2" mask="url(#path-2-inside-1_449_29294)" />
</svg>
    